<svg width="512" height="512" viewBox="0 0 512 512" fill="none" xmlns="http://www.w3.org/2000/svg">
  <rect width="512" height="512" rx="144" fill="url(#bg)"/>
  <rect x="92" y="92" width="328" height="328" rx="96" fill="url(#card)" fill-opacity="0.9" stroke="#FFFFFF" stroke-opacity="0.18"/>
  <circle cx="172" cy="176" r="32" fill="url(#accent1)"/>
  <rect x="226" y="152" width="112" height="18" rx="9" fill="#FFF4EA" fill-opacity="0.92"/>
  <rect x="226" y="184" width="88" height="18" rx="9" fill="#F4D1B7" fill-opacity="0.88"/>
  <circle cx="172" cy="262" r="32" fill="url(#accent2)"/>
  <rect x="226" y="238" width="120" height="18" rx="9" fill="#FFF4EA" fill-opacity="0.92"/>
  <rect x="226" y="270" width="94" height="18" rx="9" fill="#E2D0FF" fill-opacity="0.88"/>
  <circle cx="172" cy="348" r="32" fill="url(#accent3)"/>
  <path d="M156 348L168 360L190 336" stroke="#FFF8F1" stroke-width="16" stroke-linecap="round" stroke-linejoin="round"/>
  <rect x="226" y="324" width="132" height="18" rx="9" fill="#FFF4EA" fill-opacity="0.92"/>
  <rect x="226" y="356" width="102" height="18" rx="9" fill="#D3F2E4" fill-opacity="0.88"/>
  <defs>
    <linearGradient id="bg" x1="62" y1="40" x2="444" y2="470" gradientUnits="userSpaceOnUse">
      <stop stop-color="#F1C27D"/>
      <stop offset="0.36" stop-color="#F28A7E"/>
      <stop offset="0.68" stop-color="#B79CF7"/>
      <stop offset="1" stop-color="#66D2AE"/>
    </linearGradient>
    <linearGradient id="card" x1="112" y1="100" x2="408" y2="410" gradientUnits="userSpaceOnUse">
      <stop stop-color="#2A172C"/>
      <stop offset="1" stop-color="#170D1A"/>
    </linearGradient>
    <linearGradient id="accent1" x1="140" y1="144" x2="202" y2="206" gradientUnits="userSpaceOnUse">
      <stop stop-color="#F28A7E"/>
      <stop offset="1" stop-color="#F6B08C"/>
    </linearGradient>
    <linearGradient id="accent2" x1="140" y1="230" x2="202" y2="292" gradientUnits="userSpaceOnUse">
      <stop stop-color="#B79CF7"/>
      <stop offset="1" stop-color="#8D76E9"/>
    </linearGradient>
    <linearGradient id="accent3" x1="140" y1="316" x2="202" y2="378" gradientUnits="userSpaceOnUse">
      <stop stop-color="#66D2AE"/>
      <stop offset="1" stop-color="#3FA57F"/>
    </linearGradient>
  </defs>
</svg>
